# This file uses centimeters as units for non-parametric coordinates.

mtllib minimal_01.mtl
g default
v -1.670528 -0.134274 2.021359
v -0.951549 -1.379583 2.021359
v 0.951549 -1.379583 2.021359
v 1.670528 -0.134274 2.021359
v 0.718979 1.513857 2.021359
v -0.718979 1.513857 2.021359
v 0.516494 0.866260 -0.032102
v -0.516493 0.866260 -0.032102
v -1.008450 0.014167 -0.032102
v -0.491957 -0.880427 -0.032102
v 0.491956 -0.880427 -0.032102
v 1.008450 0.014166 -0.032102
v 0.475137 0.644104 -1.372687
v -0.475136 0.644104 -1.372687
v -0.795379 0.089428 -1.372687
v -0.320242 -0.733532 -1.372687
v 0.320242 -0.733532 -1.372687
v 0.795379 0.089428 -1.372687
v 0.337754 0.645638 1.018295
v -0.337753 0.645638 1.018295
v -0.728015 -0.030316 1.018295
v -0.390262 -0.615322 1.018295
v 0.390262 -0.615322 1.018295
v 0.728015 -0.030316 1.018295
v 1.630545 1.609838 -4.856500
v -1.630543 1.609838 -4.856500
v -2.209439 0.607171 -4.856500
v -0.578889 -2.217010 -4.856500
v 0.578889 -2.217010 -4.856500
v 2.209439 0.607170 -4.856500
v 1.600743 2.418404 -0.401271
v -1.600742 2.418405 -0.401271
v -2.894772 0.177081 -0.401271
v -1.294029 -2.595485 -0.401271
v 1.294028 -2.595485 -0.401271
v 2.894772 0.177080 -0.401271
v -0.362152 -0.976405 -0.784112
v -0.000000 -0.469937 -0.875000
v 0.362152 -0.976405 -0.784112
v 1.026668 0.174569 -0.784112
v 0.406978 0.234969 -0.875000
v 0.664516 0.801835 -0.784112
v 0.391538 0.904176 0.582164
v -0.391537 0.904176 0.582164
v 0.000000 0.469937 0.875000
v -0.978808 -0.113006 0.582164
v -0.587271 -0.791169 0.582164
v -0.406978 -0.234969 0.875000
v 0.587271 -0.791170 0.582164
v 0.978808 -0.113007 0.582164
v 0.406978 -0.234969 0.875000
v 0.470514 -0.271651 -1.568879
v 0.000000 0.543302 -1.568879
v -0.470514 -0.271651 -1.568879
v -0.440358 0.254241 1.163672
v -0.000000 -0.508481 1.163672
v 0.440358 0.254241 1.163672
v 0.950932 1.112224 -2.865750
v 0.000001 1.452943 -5.551035
v -0.950931 1.112224 -2.865750
v -1.438684 0.267417 -2.865750
v -1.258289 -0.726472 -5.551035
v -0.487749 -1.379642 -2.865750
v 0.487749 -1.379642 -2.865750
v 1.258289 -0.726473 -5.551035
v 1.438683 0.267416 -2.865750
v -0.557794 1.028066 1.448179
v -1.017041 0.587189 2.309374
v -1.169228 -0.030969 1.448179
v -0.611434 -0.997097 1.448179
v -0.000000 -1.174379 2.309374
v 0.611434 -0.997097 1.448179
v 1.169228 -0.030969 1.448179
v 1.017041 0.587189 2.309374
v 0.557794 1.028065 1.448179
v 1.029635 1.606298 -0.200636
v 1.979687 2.080523 -2.772893
v -1.979685 2.080523 -2.772893
v -1.029634 1.606299 -0.200636
v -1.905913 0.088541 -0.200636
v -2.791633 0.674196 -2.772893
v -0.811942 -2.754719 -2.772893
v -0.876278 -1.694839 -0.200636
v 0.876278 -1.694839 -0.200636
v 0.811942 -2.754719 -2.772893
v 2.791633 0.674194 -2.772893
v 1.905913 0.088540 -0.200636
v 1.047027 2.176889 1.157311
v -1.047026 2.176889 1.157311
v -2.408754 -0.181693 1.157311
v -1.361728 -1.995196 1.157311
v 1.361728 -1.995196 1.157311
v 2.408754 -0.181693 1.157311
v -0.531395 0.306801 -0.125000
v -0.531396 -0.306801 0.125000
v 0.000000 0.613603 0.125000
v 0.531396 0.306801 -0.125000
v 0.531396 -0.306801 0.125000
v -0.000000 -0.613603 -0.125000
v -0.664515 0.801835 -0.784112
v -0.406978 0.234969 -0.875000
v -1.026668 0.174570 -0.784112
v 0.000000 0.000000 -0.000000
v -0.625582 0.361180 -0.500000
v -0.000000 -0.722360 -0.500000
v 0.625582 0.361180 -0.500000
v 0.000000 0.722360 0.500000
v -0.625582 -0.361180 0.500000
v 0.625582 -0.361180 0.500000
v 0.000000 0.000000 -1.000000
v 0.000000 0.000000 1.000000
v 0.000001 1.015819 -3.275517
v -0.879727 -0.507910 -3.275517
v 0.879727 -0.507910 -3.275517
v -0.759103 0.438268 1.654687
v -0.000000 -0.876537 1.654687
v 0.759103 0.438268 1.654687
v 1.198371 1.401441 -1.636447
v -1.198370 1.401441 -1.636447
v -1.812871 0.337098 -1.636447
v -0.614498 -1.738539 -1.636447
v 0.614498 -1.738539 -1.636447
v 1.812871 0.337097 -1.636447
v 0.732041 1.449624 0.828656
v -0.732040 1.449625 0.828656
v -1.621432 -0.090846 0.828656
v -0.889392 -1.358778 0.828656
v 0.889391 -1.358778 0.828656
v 1.621432 -0.090847 0.828656
vt 0.343750 0.843750
vt 0.382813 0.911408
vt 0.500000 0.843750
vt 0.382813 0.776092
vt 0.421875 0.979066
vt 0.500000 0.979066
vt 0.578125 0.979066
vt 0.617188 0.911408
vt 0.656250 0.843750
vt 0.617188 0.776092
vt 0.578125 0.708434
vt 0.500000 0.708434
vt 0.421875 0.708434
vt 0.416667 0.312500
vt 0.416667 0.406485
vt 0.437500 0.406485
vt 0.437500 0.312500
vt 0.416667 0.500470
vt 0.437500 0.500470
vt 0.458333 0.500470
vt 0.458333 0.406485
vt 0.458333 0.312500
vt 0.500000 0.312500
vt 0.500000 0.406485
vt 0.520833 0.406485
vt 0.520833 0.312500
vt 0.500000 0.500470
vt 0.520833 0.500470
vt 0.541667 0.500470
vt 0.541667 0.406485
vt 0.541667 0.312500
vt 0.583333 0.312500
vt 0.583333 0.406485
vt 0.604167 0.406485
vt 0.604167 0.312500
vt 0.583333 0.500470
vt 0.604167 0.500470
vt 0.625000 0.500470
vt 0.625000 0.406485
vt 0.625000 0.312500
vt 0.375000 0.500470
vt 0.395833 0.500470
vt 0.395833 0.594455
vt 0.375000 0.594455
vt 0.416667 0.500470
vt 0.416667 0.594455
vt 0.416667 0.688440
vt 0.395833 0.688440
vt 0.375000 0.688440
vt 0.458333 0.500470
vt 0.479167 0.500470
vt 0.479167 0.594455
vt 0.458333 0.594455
vt 0.500000 0.500470
vt 0.500000 0.594455
vt 0.500000 0.688440
vt 0.479167 0.688440
vt 0.458333 0.688440
vt 0.541667 0.500470
vt 0.562500 0.500470
vt 0.562500 0.594455
vt 0.541667 0.594455
vt 0.583333 0.500470
vt 0.583333 0.594455
vt 0.583333 0.688440
vt 0.562500 0.688440
vt 0.541667 0.688440
vt 0.656250 0.156250
vt 0.617188 0.088592
vt 0.500000 0.156250
vt 0.617188 0.223908
vt 0.578125 0.020934
vt 0.500000 0.020934
vt 0.421875 0.020934
vt 0.382813 0.088592
vt 0.343750 0.156250
vt 0.382813 0.223908
vt 0.421875 0.291566
vt 0.500000 0.291566
vt 0.578125 0.291566
vt 0.343750 0.843750
vt 0.382813 0.776092
vt 0.500000 0.843750
vt 0.382813 0.911408
vt 0.421875 0.708434
vt 0.500000 0.708434
vt 0.578125 0.708434
vt 0.617188 0.776092
vt 0.656250 0.843750
vt 0.617188 0.911408
vt 0.578125 0.979066
vt 0.500000 0.979066
vt 0.421875 0.979066
vt 0.000000 0.000000
vt 0.000000 0.500000
vt 0.500000 0.500000
vt 0.500000 0.000000
vt 0.000000 1.000000
vt 0.500000 1.000000
vt 1.000000 1.000000
vt 1.000000 0.500000
vt 1.000000 0.000000
vt 0.000000 0.000000
vt 0.000000 0.500000
vt 0.500000 0.500000
vt 0.500000 0.000000
vt 0.000000 1.000000
vt 0.500000 1.000000
vt 1.000000 1.000000
vt 1.000000 0.500000
vt 1.000000 0.000000
vt 0.000000 0.000000
vt 0.000000 0.500000
vt 0.500000 0.500000
vt 0.500000 0.000000
vt 0.000000 1.000000
vt 0.500000 1.000000
vt 1.000000 1.000000
vt 1.000000 0.500000
vt 1.000000 0.000000
vt 0.000000 0.000000
vt 0.000000 0.500000
vt 0.500000 0.500000
vt 0.500000 0.000000
vt 0.000000 1.000000
vt 0.500000 1.000000
vt 1.000000 1.000000
vt 1.000000 0.500000
vt 1.000000 0.000000
vt 0.000000 0.000000
vt 0.000000 0.500000
vt 0.500000 0.500000
vt 0.500000 0.000000
vt 0.000000 1.000000
vt 0.500000 1.000000
vt 1.000000 1.000000
vt 1.000000 0.500000
vt 1.000000 0.000000
vt 0.000000 0.000000
vt 0.000000 0.500000
vt 0.500000 0.500000
vt 0.500000 0.000000
vt 0.000000 1.000000
vt 0.500000 1.000000
vt 1.000000 1.000000
vt 1.000000 0.500000
vt 1.000000 0.000000
vt 0.000000 0.000000
vt 0.500000 0.000000
vt 0.500000 0.500000
vt 0.000000 0.500000
vt 1.000000 0.000000
vt 1.000000 0.500000
vt 1.000000 1.000000
vt 0.500000 1.000000
vt 0.000000 1.000000
vt 0.000000 0.000000
vt 0.000000 0.500000
vt 0.500000 0.500000
vt 0.500000 0.000000
vt 0.000000 1.000000
vt 0.500000 1.000000
vt 1.000000 1.000000
vt 1.000000 0.500000
vt 1.000000 0.000000
vt 0.000000 0.000000
vt 0.500000 0.000000
vt 0.500000 0.500000
vt 0.000000 0.500000
vt 1.000000 0.000000
vt 1.000000 0.500000
vt 1.000000 1.000000
vt 0.500000 1.000000
vt 0.000000 1.000000
vt 0.000000 0.000000
vt 0.000000 0.500000
vt 0.500000 0.500000
vt 0.500000 0.000000
vt 0.000000 1.000000
vt 0.500000 1.000000
vt 1.000000 1.000000
vt 1.000000 0.500000
vt 1.000000 0.000000
vt 0.000000 0.000000
vt 0.500000 0.000000
vt 0.500000 0.500000
vt 0.000000 0.500000
vt 1.000000 0.000000
vt 1.000000 0.500000
vt 1.000000 1.000000
vt 0.500000 1.000000
vt 0.000000 1.000000
vt 0.000000 0.000000
vt 0.000000 0.500000
vt 0.500000 0.500000
vt 0.500000 0.000000
vt 0.000000 1.000000
vt 0.500000 1.000000
vt 1.000000 1.000000
vt 1.000000 0.500000
vt 1.000000 0.000000
vt 0.000000 0.000000
vt 0.500000 0.000000
vt 0.500000 0.500000
vt 0.000000 0.500000
vt 1.000000 0.000000
vt 1.000000 0.500000
vt 1.000000 1.000000
vt 0.500000 1.000000
vt 0.000000 1.000000
vt 0.000000 0.000000
vt 0.000000 0.500000
vt 0.500000 0.500000
vt 0.500000 0.000000
vt 0.000000 1.000000
vt 0.500000 1.000000
vt 1.000000 1.000000
vt 1.000000 0.500000
vt 1.000000 0.000000
vt 0.000000 0.000000
vt 0.500000 0.000000
vt 0.500000 0.500000
vt 0.000000 0.500000
vt 1.000000 0.000000
vt 1.000000 0.500000
vt 1.000000 1.000000
vt 0.500000 1.000000
vt 0.000000 1.000000
vt 0.000000 0.000000
vt 0.000000 0.500000
vt 0.500000 0.500000
vt 0.500000 0.000000
vt 0.000000 1.000000
vt 0.500000 1.000000
vt 1.000000 1.000000
vt 1.000000 0.500000
vt 1.000000 0.000000
vt 0.000000 0.000000
vt 0.500000 0.000000
vt 0.500000 0.500000
vt 0.000000 0.500000
vt 1.000000 0.000000
vt 1.000000 0.500000
vt 1.000000 1.000000
vt 0.500000 1.000000
vt 0.000000 1.000000
vt 0.000000 0.000000
vt 0.000000 0.500000
vt 0.500000 0.500000
vt 0.500000 0.000000
vt 0.000000 1.000000
vt 0.500000 1.000000
vt 1.000000 1.000000
vt 1.000000 0.500000
vt 1.000000 0.000000
vn -0.022495 -0.957087 -0.288925
vn 0.516791 -0.298369 -0.802436
vn 0.000000 0.000000 -1.000000
vn -0.504534 -0.291293 -0.812769
vn 0.817614 0.498025 -0.288925
vn 0.000000 0.582586 -0.812769
vn -0.817614 0.498025 -0.288925
vn -0.516791 -0.298369 -0.802436
vn 0.022495 -0.957087 -0.288925
vn 0.504534 -0.291293 -0.812769
vn 0.840110 0.459062 -0.288925
vn 0.000000 0.596739 -0.802436
vn -0.840109 0.459062 -0.288925
vn 0.551735 0.813756 0.182729
vn 0.849200 0.521757 -0.081420
vn 0.865486 -0.499689 -0.035292
vn 0.516443 -0.298169 0.802734
vn -0.027255 -0.996307 -0.081419
vn -0.428865 -0.884695 0.182730
vn -0.980601 0.070938 0.182729
vn -0.876455 0.474550 -0.081420
vn 0.000000 0.999377 -0.035292
vn -0.000000 0.596337 0.802734
vn 0.876455 0.474550 -0.081420
vn 0.980601 0.070937 0.182729
vn 0.428865 -0.884695 0.182730
vn 0.027255 -0.996307 -0.081419
vn -0.865486 -0.499689 -0.035292
vn -0.516443 -0.298169 0.802734
vn -0.849200 0.521757 -0.081420
vn -0.551735 0.813756 0.182729
vn 0.000000 0.996227 0.086783
vn -0.778642 0.626629 -0.032460
vn 0.778642 0.626629 -0.032460
vn 0.823733 0.340710 0.453189
vn 0.000000 0.563808 0.825906
vn -0.823733 0.340710 0.453189
vn -0.862758 -0.498113 0.086782
vn -0.153356 -0.987638 -0.032460
vn -0.931997 0.361009 -0.032460
vn -0.706930 0.543019 0.453189
vn -0.488272 -0.281904 0.825906
vn 0.116803 -0.883729 0.453189
vn 0.862758 -0.498114 0.086782
vn 0.931997 0.361009 -0.032460
vn 0.153355 -0.987638 -0.032460
vn -0.116803 -0.883729 0.453189
vn 0.488272 -0.281904 0.825906
vn 0.706930 0.543019 0.453190
vn -0.000000 -0.000000 1.000000
vn 0.821249 -0.474150 0.317383
vn 0.000000 0.948298 0.317382
vn -0.821249 -0.474150 0.317383
vn 0.000000 0.000000 1.000000
vn 0.570186 -0.329197 0.752673
vn 0.000000 0.658394 0.752674
vn -0.570186 -0.329197 0.752673
vn -0.454167 0.886436 0.089245
vn 0.000000 0.979808 0.199939
vn -0.304714 0.942884 0.134610
vn 0.000000 0.982337 0.187123
vn 0.304714 0.942884 0.134610
vn 0.454167 0.886435 0.089245
vn -0.540591 -0.836538 0.089246
vn -0.848538 -0.489906 0.199939
vn -0.664203 -0.735333 0.134610
vn -0.850727 -0.491170 0.187124
vn -0.968918 -0.207554 0.134610
vn -0.994759 -0.049899 0.089246
vn 0.994759 -0.049899 0.089246
vn 0.848538 -0.489906 0.199939
vn 0.968918 -0.207554 0.134610
vn 0.850727 -0.491170 0.187124
vn 0.664203 -0.735333 0.134610
vn 0.540591 -0.836539 0.089246
vn 0.961350 0.173970 0.213402
vn 0.767052 -0.442858 0.464228
vn 0.973841 0.166347 0.154796
vn 0.787866 -0.454874 0.415159
vn 0.342860 -0.926545 0.154796
vn 0.330012 -0.919539 0.213402
vn -0.631338 0.745568 0.213403
vn 0.000000 0.885715 0.464229
vn -0.630982 0.760198 0.154796
vn 0.000000 0.909748 0.415160
vn 0.630982 0.760198 0.154796
vn 0.631338 0.745568 0.213402
vn -0.330012 -0.919539 0.213402
vn -0.767052 -0.442858 0.464228
vn -0.342860 -0.926545 0.154795
vn -0.787866 -0.454874 0.415159
vn -0.973841 0.166347 0.154795
vn -0.961350 0.173971 0.213402
vn -0.768500 0.629075 -0.116927
vn -0.826156 0.529636 -0.192229
vn -0.816945 0.542116 -0.196750
vn -0.715527 0.694040 -0.079562
vn 0.768501 0.629075 -0.116927
vn 0.715527 0.694039 -0.079562
vn 0.816945 0.542116 -0.196750
vn 0.826156 0.529636 -0.192229
vn -0.160544 -0.980078 -0.116926
vn -0.045600 -0.980290 -0.192229
vn -0.061014 -0.978554 -0.196750
vn -0.243292 -0.966685 -0.079562
vn -0.929045 0.351003 -0.116927
vn -0.958820 0.272644 -0.079562
vn -0.877959 0.436437 -0.196750
vn -0.871756 0.450654 -0.192229
vn 0.929045 0.351003 -0.116927
vn 0.871756 0.450654 -0.192229
vn 0.877959 0.436437 -0.196750
vn 0.958820 0.272644 -0.079562
vn 0.160544 -0.980079 -0.116926
vn 0.243292 -0.966685 -0.079561
vn 0.061013 -0.978554 -0.196749
vn 0.045600 -0.980290 -0.192229
vn -0.870759 0.478091 -0.114926
vn -0.875054 0.462963 -0.141228
vn 0.870759 0.478091 -0.114926
vn 0.875055 0.462962 -0.141228
vn 0.021340 -0.993145 -0.114926
vn 0.036590 -0.989301 -0.141228
vn -0.849418 0.515054 -0.114926
vn -0.838465 0.526338 -0.141228
vn 0.849419 0.515054 -0.114926
vn 0.838465 0.526338 -0.141228
vn -0.021341 -0.993145 -0.114925
vn -0.036590 -0.989301 -0.141228
s 1
g polySurface4
usemtl initialShadingGroup
f 9/1/1 94/2/2 103/3/3 95/4/4
f 8/5/5 96/6/6 103/3/3 94/2/2
f 7/7/7 97/8/8 103/3/3 96/6/6
f 12/9/9 98/10/10 103/3/3 97/8/8
f 11/11/11 99/12/12 103/3/3 98/10/10
f 10/13/13 95/4/4 103/3/3 99/12/12
f 14/14/14 100/15/15 104/16/16 101/17/17
f 100/15/15 8/18/5 94/19/2 104/16/16
f 104/16/16 94/19/2 9/20/1 102/21/18
f 101/17/17 104/16/16 102/21/18 15/22/19
f 16/23/20 37/24/21 105/25/22 38/26/23
f 37/24/21 10/27/13 99/28/12 105/25/22
f 105/25/22 99/28/12 11/29/11 39/30/24
f 38/26/23 105/25/22 39/30/24 17/31/25
f 18/32/26 40/33/27 106/34/28 41/35/29
f 40/33/27 12/36/9 97/37/8 106/34/28
f 106/34/28 97/37/8 7/38/7 42/39/30
f 41/35/29 106/34/28 42/39/30 13/40/31
f 7/41/7 96/42/6 107/43/32 43/44/33
f 96/42/6 8/45/5 44/46/34 107/43/32
f 107/43/32 44/46/34 20/47/35 45/48/36
f 43/44/33 107/43/32 45/48/36 19/49/37
f 9/50/1 95/51/4 108/52/38 46/53/39
f 95/51/4 10/54/13 47/55/40 108/52/38
f 108/52/38 47/55/40 22/56/41 48/57/42
f 46/53/39 108/52/38 48/57/42 21/58/43
f 11/59/11 98/60/10 109/61/44 49/62/45
f 98/60/10 12/63/9 50/64/46 109/61/44
f 109/61/44 50/64/46 24/65/47 51/66/48
f 49/62/45 109/61/44 51/66/48 23/67/49
f 18/68/26 41/69/29 110/70/50 52/71/51
f 13/72/31 53/73/52 110/70/50 41/69/29
f 14/74/14 101/75/17 110/70/50 53/73/52
f 15/76/19 54/77/53 110/70/50 101/75/17
f 16/78/20 38/79/23 110/70/50 54/77/53
f 17/80/25 52/71/51 110/70/50 38/79/23
f 21/81/43 48/82/42 111/83/54 55/84/55
f 22/85/41 56/86/56 111/83/54 48/82/42
f 23/87/49 51/88/48 111/83/54 56/86/56
f 24/89/47 57/90/57 111/83/54 51/88/48
f 19/91/37 45/92/36 111/83/54 57/90/57
f 20/93/35 55/84/55 111/83/54 45/92/36
f 13/94/31 58/95/58 112/96/59 53/97/52
f 58/95/58 25/98/60 59/99/61 112/96/59
f 112/96/59 59/99/61 26/100/62 60/101/63
f 53/97/52 112/96/59 60/101/63 14/102/14
f 15/103/19 61/104/64 113/105/65 54/106/53
f 61/104/64 27/107/66 62/108/67 113/105/65
f 113/105/65 62/108/67 28/109/68 63/110/69
f 54/106/53 113/105/65 63/110/69 16/111/20
f 17/112/25 64/113/70 114/114/71 52/115/51
f 64/113/70 29/116/72 65/117/73 114/114/71
f 114/114/71 65/117/73 30/118/74 66/119/75
f 52/115/51 114/114/71 66/119/75 18/120/26
f 20/121/35 67/122/76 115/123/77 55/124/55
f 67/122/76 6/125/78 68/126/79 115/123/77
f 115/123/77 68/126/79 1/127/80 69/128/81
f 55/124/55 115/123/77 69/128/81 21/129/43
f 22/130/41 70/131/82 116/132/83 56/133/56
f 70/131/82 2/134/84 71/135/85 116/132/83
f 116/132/83 71/135/85 3/136/86 72/137/87
f 56/133/56 116/132/83 72/137/87 23/138/49
f 24/139/47 73/140/88 117/141/89 57/142/57
f 73/140/88 4/143/90 74/144/91 117/141/89
f 117/141/89 74/144/91 5/145/92 75/146/93
f 57/142/57 117/141/89 75/146/93 19/147/37
f 13/148/31 42/149/30 118/150/94 58/151/58
f 42/149/30 7/152/7 76/153/95 118/150/94
f 118/150/94 76/153/95 31/154/96 77/155/97
f 58/151/58 118/150/94 77/155/97 25/156/60
f 14/157/14 60/158/63 119/159/98 100/160/15
f 60/158/63 26/161/62 78/162/99 119/159/98
f 119/159/98 78/162/99 32/163/100 79/164/101
f 100/160/15 119/159/98 79/164/101 8/165/5
f 15/166/19 102/167/18 120/168/102 61/169/64
f 102/167/18 9/170/1 80/171/103 120/168/102
f 120/168/102 80/171/103 33/172/104 81/173/105
f 61/169/64 120/168/102 81/173/105 27/174/66
f 16/175/20 63/176/69 121/177/106 37/178/21
f 63/176/69 28/179/68 82/180/107 121/177/106
f 121/177/106 82/180/107 34/181/108 83/182/109
f 37/178/21 121/177/106 83/182/109 10/183/13
f 17/184/25 39/185/24 122/186/110 64/187/70
f 39/185/24 11/188/11 84/189/111 122/186/110
f 122/186/110 84/189/111 35/190/112 85/191/113
f 64/187/70 122/186/110 85/191/113 29/192/72
f 18/193/26 66/194/75 123/195/114 40/196/27
f 66/194/75 30/197/74 86/198/115 123/195/114
f 123/195/114 86/198/115 36/199/116 87/200/117
f 40/196/27 123/195/114 87/200/117 12/201/9
f 7/202/7 43/203/33 124/204/118 76/205/95
f 43/203/33 19/206/37 75/207/93 124/204/118
f 124/204/118 75/207/93 5/208/92 88/209/119
f 76/205/95 124/204/118 88/209/119 31/210/96
f 8/211/5 79/212/101 125/213/120 44/214/34
f 79/212/101 32/215/100 89/216/121 125/213/120
f 125/213/120 89/216/121 6/217/78 67/218/76
f 44/214/34 125/213/120 67/218/76 20/219/35
f 9/220/1 46/221/39 126/222/122 80/223/103
f 46/221/39 21/224/43 69/225/81 126/222/122
f 126/222/122 69/225/81 1/226/80 90/227/123
f 80/223/103 126/222/122 90/227/123 33/228/104
f 10/229/13 83/230/109 127/231/124 47/232/40
f 83/230/109 34/233/108 91/234/125 127/231/124
f 127/231/124 91/234/125 2/235/84 70/236/82
f 47/232/40 127/231/124 70/236/82 22/237/41
f 11/238/11 49/239/45 128/240/126 84/241/111
f 49/239/45 23/242/49 72/243/87 128/240/126
f 128/240/126 72/243/87 3/244/86 92/245/127
f 84/241/111 128/240/126 92/245/127 35/246/112
f 12/247/9 87/248/117 129/249/128 50/250/46
f 87/248/117 36/251/116 93/252/129 129/249/128
f 129/249/128 93/252/129 4/253/90 73/254/88
f 50/250/46 129/249/128 73/254/88 24/255/47
